<?xml version="1.0" encoding="utf-8"?>
<!-- Generator: Adobe Illustrator 18.0.0, SVG Export Plug-In . SVG Version: 6.00 Build 0)  -->
<!DOCTYPE svg PUBLIC "-//W3C//DTD SVG 1.1//EN" "http://www.w3.org/Graphics/SVG/1.1/DTD/svg11.dtd">
<svg version="1.1" id="Layer_1" xmlns="http://www.w3.org/2000/svg" xmlns:xlink="http://www.w3.org/1999/xlink" x="0px" y="0px"
	 viewBox="0 0 180.3 180.3" enable-background="new 0 0 180.3 180.3" xml:space="preserve">
<g opacity="0.5">
	<path fill="#EC6060" d="M1.8,89.8C2,40.5,41.6,1.6,91.6,1.8c47.9,0.2,87.2,40.3,86.9,88.9c-0.3,49.1-39.8,87.9-89.5,87.7
		C41,178.3,1.7,138.4,1.8,89.8z M90.2,70.4c5.5,0,11.1,0,16.6,0c6.7,0,13.4,0.2,20.1-0.1c5.1-0.2,8.4-3.7,8.5-8.4
		c0.1-4.5-2.8-7.7-7.8-8.5c-1.6-0.2-3.2-0.3-4.9-0.3c-21.7,0-43.4,0-65.1,0c-2.3,0-4.6,0.1-6.8,0.7c-4.7,1.3-7.2,6.5-5.3,10.9
		c1.7,4.2,5.2,5.6,9.4,5.6C66.7,70.4,78.4,70.4,90.2,70.4z M90.2,81.6c-11.7,0-23.5,0-35.2,0c-6.2,0-9.9,3.1-10,8.3
		c-0.1,5.4,3.6,8.7,10.1,8.7c23.3,0,46.6,0,70,0c6.6,0,10.3-3.2,10.3-8.5c0-5.3-3.7-8.4-10.3-8.4C113.4,81.6,101.8,81.6,90.2,81.6z
		 M90.6,109.9c-11.1,0-22.2,0-33.3,0c-1.1,0-2.3-0.1-3.4,0c-5.4,0.4-8.9,3.6-9,8.4c-0.1,4.7,3,7.9,8.2,8.6c1.3,0.2,2.6,0.2,3.9,0.2
		c22,0,44,0,66.1,0c1.9,0,3.9-0.1,5.8-0.5c3.9-1,6.1-3.6,6.3-7.7c0.2-4.1-1.8-6.9-5.6-8.2c-1.8-0.6-3.8-0.7-5.8-0.7
		C112.8,109.8,101.7,109.9,90.6,109.9z"/>
</g>
</svg>
